<?xml version="1.0" encoding="UTF-8"?>
<svg id="Layer_1" data-name="Layer 1" xmlns="http://www.w3.org/2000/svg" xmlns:xlink="http://www.w3.org/1999/xlink" viewBox="0 0 1000 191.04">
  <defs>
    <style>
      .cls-1 { mask: url(#mask); }
      .cls-2, .cls-3 { fill: #ffd731; }
      .cls-4 { mask: url(#mask-2); }
      .cls-5 { mask: url(#mask-1); }
      .cls-3 { stroke: #000; stroke-linejoin: bevel; stroke-width: 5.86px; }
      .cls-6 { fill: #fff; }
    </style>
    <mask id="mask" x="795.31" y="55.57" width="204.69" height="133.04" maskUnits="userSpaceOnUse">
      <g><g><g><path class="cls-3" d="M798.4,87.87c1.38-10.87,4.75-20.82,7.65-31.53l-.77,3.83-.77,3.83c-1.22,10.41-.77,17.76,1.68,28.01,5.51,18.52,14.24,31.23,28.93,44.7,21.12,17.76,44.24,27.09,73.32,28.78,37.2.77,70.41-13.47,85.42-47.45l1.38-3.52-5.66,20.05-1.38,3.52c-14.24,32.45-45,46.69-80.67,47.61-40.26-.77-74.7-18.37-95.98-49.44-9.8-15.92-14.24-29.7-13.16-48.37Z"/></g></g></g>
    </mask>
    <mask id="mask-1" x="795.83" y="-20.91" width="145.97" height="104.34" maskUnits="userSpaceOnUse">
      <g><g><g><path class="cls-6" d="M844.48-5.08c5.05,11.33-1.22,22.96-14.24,25.87-12.86,2.91-27.55-3.83-32.61-15.15-5.2-11.33,1.22-22.96,14.08-25.87,13.01-2.91,27.55,3.83,32.76,15.15Z"/></g></g></g>
    </mask>
    <mask id="mask-2" x="762.07" y="-13.16" width="143.48" height="105.14" maskUnits="userSpaceOnUse">
      <g><g><g><path class="cls-6" d="M810.65,2.73c-5.05-11.33-19.75-18.22-32.61-15.15-13.01,2.91-19.29,14.54-14.24,25.87,5.05,11.33,19.75,18.06,32.76,15.15,12.86-3.06,19.13-14.54,14.08-25.87Z"/></g></g></g>
    </mask>
  </defs>
  <g>
    <g id="Depth"><g><g><path class="cls-2" d="M798.4,87.87c1.38-10.87,4.75-20.82,7.65-31.53l-.77,3.83-.77,3.83c-1.22,10.41-.77,17.76,1.68,28.01,5.51,18.52,14.24,31.23,28.93,44.7,21.12,17.76,44.24,27.09,73.32,28.78,37.2.77,70.41-13.47,85.42-47.45l1.38-3.52-5.66,20.05-1.38,3.52c-14.24,32.45-45,46.69-80.67,47.61-40.26-.77-74.7-18.37-95.98-49.44-9.8-15.92-14.24-29.7-13.16-48.37Z"/><path d="M996.52,114.85l-1.36-.45-1.24-.42-1.36,3.49c-.19.44-.39.87-.59,1.3-.02.07-.05.13-.08.18-4.57,9.82-10.82,18.13-18.66,24.88-.2.17-.41.34-.61.51-.43.37-.87.73-1.32,1.07-3.8,3.06-7.96,5.76-12.46,8.1-3.43,1.79-7.07,3.36-10.89,4.69-.67.25-1.35.48-2.04.7-.15.05-.3.1-.45.14-.93.31-1.89.58-2.84.86-5.89,1.69-12.14,2.88-18.67,3.53-4.92.51-10,.71-15.19.61h-.22c-.11-.01-.23-.01-.34-.02-8.47-.51-16.47-1.69-24.1-3.56-11.19-2.76-21.57-7.03-31.4-12.94-.37-.21-.74-.43-1.11-.67-.44-.26-.88-.54-1.32-.82-3.91-2.47-7.74-5.21-11.5-8.22-.11-.08-.22-.17-.32-.26-.79-.62-1.57-1.27-2.35-1.92-.47-.43-.93-.86-1.39-1.29-.07-.07-.13-.13-.2-.19-13.36-12.6-21.13-24.5-26.17-40.14-.25-.78-.5-1.58-.74-2.38-.19-.82-.37-1.61-.54-2.4-.02-.08-.04-.17-.05-.25-.07-.3-.14-.61-.2-.91-.41-2-.72-3.89-.96-5.75-.02-.13-.03-.27-.05-.4-.7-5.67-.63-10.98.13-17.51.03-.18.06-.36.09-.53l1.24-6.23.21-1.04-1.33-.31-1.4-.33h-.05c-.67,2.46-1.38,4.92-2.06,7.31-2.34,8.2-4.56,15.94-5.63,24.41v.1c-1.03,17.84,2.84,32.1,13.36,49.2l.04.06c10.7,15.63,24.64,27.93,41.4,36.55,16.68,8.58,35.44,13.12,55.73,13.51h.06c3.93-.1,7.76-.36,11.48-.78,14.14-1.57,26.74-5.38,37.55-11.37,14.89-8.27,25.97-20.48,32.91-36.31l1.4-3.57,5.71-20.18-.11-.04Z"/></g></g></g>
    <g class="cls-1"><g><g><g><path d="M996.52,114.85l.11.04-5.71,20.18-1.4,3.57c-6.94,15.82-18.01,28.04-32.91,36.31-10.81,5.99-23.41,9.8-37.55,11.37l.32-1.48.31-1.46,3.58-16.87.03-.14.29-1.34.02-.11.29-1.36.03-.13,6.65-31.32.71-3.33,10.87-51.14,17.79,3.78,2.96.63,34.09,7.24,1.46.31,1.44.31c.44,8.53-.69,16.93-3.39,24.94Z"/></g></g></g></g>
    <g id="Head"><g><g><path class="cls-2" d="M810.64,104.24c-19.75-43.78,4.75-88.63,54.8-100.11,50.06-11.48,106.54,14.85,126.29,58.63,19.75,43.93-4.75,88.78-54.8,100.11-50.06,11.48-106.54-14.85-126.29-58.63Z"/><path d="M999.91,89.92c-.46-9.21-2.75-18.58-6.87-27.75-9.7-21.5-28.34-39.52-52.48-50.74-24.15-11.22-50.93-14.3-75.43-8.69-12.95,2.97-24.44,8.16-34.14,15.42-9.4,7.03-16.67,15.65-21.63,25.63-1.96,3.94-3.51,8.01-4.64,12.18-1.14,4.17-1.86,8.42-2.16,12.74-.16,2.03-.21,4.09-.17,6.15.07,4.6.61,9.25,1.62,13.89.05.26.11.52.17.78.39,1.72.84,3.44,1.36,5.16,1.02,3.39,2.28,6.78,3.8,10.13.71,1.57,1.46,3.11,2.26,4.64.26.49.52.98.78,1.46.33.6.67,1.2,1.01,1.79.37.65.75,1.29,1.14,1.92.33.55.67,1.1,1.02,1.64.63.99,1.29,1.98,1.98,2.95,4.57,6.61,10.07,12.74,16.35,18.25.21.2.43.38.64.56,5.8,5.03,12.25,9.54,19.26,13.44,2.6,1.45,5.27,2.81,8.02,4.09,5.08,2.36,10.28,4.37,15.56,6,.28.09.56.17.85.26,11.33,3.42,22.98,5.16,34.49,5.16,3.53,0,7.05-.17,10.55-.49,4.71-.45,9.38-1.2,13.97-2.25,2.63-.6,5.21-1.28,7.72-2.08.23-.06.47-.13.7-.21.33-.1.66-.21.99-.32,9.13-3.01,17.39-7.25,24.67-12.67.99-.74,1.96-1.49,2.9-2.28.25-.18.5-.4.75-.61,5.79-4.86,10.66-10.4,14.54-16.55,1.06-1.66,2.04-3.37,2.94-5.11.17-.32.33-.63.49-.95,1.4-2.81,2.59-5.69,3.57-8.62,2.7-8,3.83-16.4,3.39-24.94Z"/></g></g></g>
    <g id="Mouth_2"><g><g><path d="M906.89,136.13c-11.33,0-22.98-2.53-34.02-7.5-12.53-5.64-23.36-14.06-31.33-24.34l2.26-1.75c7.68,9.91,18.14,18.04,30.24,23.49,16.26,7.32,33.88,9.17,49.63,5.22,15.62-3.93,27.37-13.08,33.09-25.77,3.78-8.39,4.66-17.96,2.55-27.68l2.79-.61c2.24,10.32,1.3,20.51-2.73,29.46-6.08,13.5-18.51,23.22-35,27.37-5.64,1.42-11.52,2.12-17.48,2.12Z"/></g></g></g>
    <g id="Null_1"><g><g><g><path class="cls-6" d="M906.09,68.91c-5.05-11.33-19.75-18.22-32.61-15.15-13.01,2.91-19.29,14.54-14.24,25.87,5.05,11.33,19.75,18.06,32.76,15.15,12.86-3.06,19.13-14.54,14.08-25.87Z"/></g></g></g><g><g><g><path class="cls-6" d="M939.92,61.11c5.05,11.33-1.22,22.96-14.24,25.87-12.86,2.91-27.55-3.83-32.61-15.15-5.2-11.33,1.22-22.96,14.08-25.87,13.01-2.91,27.55,3.83,32.76,15.15Z"/></g></g></g><g class="cls-5"><g><g><g><path d="M938.11,61.27c-4.29-9.8-13.62-16.23-20.67-14.7-7.04,1.68-9.18,10.87-4.9,20.51,4.44,9.8,13.62,16.23,20.67,14.7,7.04-1.68,9.34-10.87,4.9-20.51Z"/></g></g></g></g><g class="cls-4"><g><g><g><path d="M901.81,69.83c4.44,9.64,2.3,18.83-4.75,20.51-7.19,1.53-16.38-4.9-20.82-14.7-4.29-9.64-2.14-18.83,4.9-20.51,7.04-1.53,16.38,5.05,20.67,14.7Z"/></g></g></g></g></g>
    <g id="Stroke_Eyes"><g><g><path d="M942.82,65.94c-1.65-13.3-11.12-21.05-27.37-22.41h-.05c-13.6-.71-19.92,6.02-22.68,10.76-6.02-2.25-16.18-5.44-26.78.79-6.19,3.63-8.52,8.84-9.38,12.57-1.18,5.1-.32,10.66,2.24,14.51,6.36,9.59,15.47,14.53,27.08,14.66.14.01.29.01.43.01,12.63,0,17.68-6.62,20.18-10.35,2.45.96,8.49,2.89,16.37,2.38,6.06-.39,11.92-3.34,15.68-7.88,3.49-4.22,4.96-9.42,4.26-15.05Z"/></g></g></g>
    <g><path d="M903.93,70.03c4.52,9.49,2.26,18.53-4.52,20.33-7.23,1.36-16.72-4.97-20.79-14.91-4.52-9.49-2.26-18.53,4.52-20.33,7.23-1.36,16.72,4.97,20.79,14.91Z"/><path d="M939.18,61.02c-4.07-9.94-13.56-16.27-20.79-14.91-6.78,1.81-9.04,10.85-4.52,20.33,4.07,9.94,13.56,16.27,20.79,14.91,6.78-1.81,9.04-10.85,4.52-20.33Z"/></g>
  </g>
  <g>
    <path class="cls-6" d="M19.69,177.69C6.56,168.8,0,155.81,0,138.72c0-1.41.17-3.87.53-7.4h54.7c-.53,5.99.7,10.66,3.7,14,2.99,3.35,7.57,5.02,13.74,5.02,5.11,0,9.2-1.14,12.29-3.43,3.08-2.29,4.62-5.55,4.62-9.78,0-4.93-2.25-8.98-6.74-12.15-4.49-3.17-11.76-6.87-21.8-11.1-10.04-4.23-18.32-8.23-24.84-12.02-6.52-3.79-12.15-8.98-16.91-15.59-4.76-6.61-7.13-14.84-7.13-24.71,0-12.86,3.17-23.91,9.51-33.16,6.34-9.25,15.19-16.29,26.56-21.14C59.58,2.42,72.57,0,87.2,0c13.21,0,24.92,2.07,35.14,6.21,10.21,4.14,18.19,10.09,23.91,17.84,5.72,7.75,8.59,16.91,8.59,27.48,0,2.82-.09,4.93-.26,6.34h-55.75c.17-.88.26-2.11.26-3.7,0-4.23-1.32-7.53-3.96-9.91-2.64-2.38-6.25-3.57-10.83-3.57s-8.59,1.19-11.49,3.57c-2.91,2.38-4.36,5.68-4.36,9.91,0,4.58,2.25,8.5,6.74,11.76,4.49,3.26,11.49,7.09,21.01,11.49,10.21,4.76,18.63,9.21,25.23,13.34,6.61,4.14,12.29,9.64,17.04,16.51,4.76,6.87,7.13,15.32,7.13,25.37,0,11.1-3,21.1-8.98,29.99-5.99,8.9-14.53,15.85-25.63,20.87-11.1,5.02-24.22,7.53-39.37,7.53-21.49,0-38.8-4.45-51.92-13.34Z"/>
    <path class="cls-6" d="M278.23,158.8h-66.06l-15.33,30.39h-54.43L243.09,2.91h59.72l34.88,186.28h-54.69l-4.76-30.39ZM272.15,119.43l-9.25-60.51-30.65,60.51h39.9Z"/>
    <path class="cls-6" d="M503.75,95.78c-6.78,9.25-15.9,16.65-27.35,22.2-11.45,5.55-24.75,8.32-39.9,8.32h-25.63l-11.1,62.89h-52.05L380.75,2.91h77.42c19.55,0,34.44,4.45,44.65,13.34,10.21,8.9,15.33,20.83,15.33,35.8,0,3.7-.44,8.02-1.32,12.95-1.94,11.28-6.3,21.53-13.08,30.78ZM464.24,65c.35-2.47.53-4.23.53-5.28,0-4.76-1.54-8.5-4.62-11.23-3.08-2.73-7.79-4.1-14.14-4.1h-20.61l-7.13,40.96h20.61c14.62,0,23.07-6.78,25.37-20.35Z"/>
    <path class="cls-6" d="M568.34,149.82h57.87l-7.13,39.37h-109.92L542.19,2.91h51.79l-25.63,146.91Z"/>
    <path class="cls-6" d="M709.97,43.86l-5.29,30.91h59.45l-7.13,39.37h-59.45l-6.08,33.82h67.38l-7.13,41.22h-119.43L665.32,2.91h119.17l-7.13,40.96h-67.38Z"/>
  </g>
</svg>