<?xml version="1.0" encoding="UTF-8"?>
<svg id="Layer_1" data-name="Layer 1" xmlns="http://www.w3.org/2000/svg" xmlns:xlink="http://www.w3.org/1999/xlink" viewBox="0 0 1000 191.04">
  <defs>
    <style>
      .cls-1 {
        mask: url(#mask);
      }

      .cls-2, .cls-3 {
        fill: #ffd731;
      }

      .cls-4 {
        mask: url(#mask-2);
      }

      .cls-5 {
        mask: url(#mask-1);
      }

      .cls-3 {
        stroke: #000;
        stroke-linejoin: bevel;
        stroke-width: 5.86px;
      }

      .cls-6 {
        fill: #fff;
      }
    </style>
    <mask id="mask" x="795.31" y="55.57" width="204.69" height="133.04" maskUnits="userSpaceOnUse">
      <g id="id_2" data-name="id 2">
        <g id="Depth_2" data-name="Depth 2">
          <g id="g_3" data-name="g 3">
            <path id="path_4" data-name="path 4" class="cls-3" d="M798.4,87.87c1.38-10.87,4.75-20.82,7.65-31.53l-.77,3.83-.77,3.83c-1.22,10.41-.77,17.76,1.68,28.01,5.51,18.52,14.24,31.23,28.93,44.7,21.12,17.76,44.24,27.09,73.32,28.78,37.2.77,70.41-13.47,85.42-47.45l1.38-3.52-5.66,20.05-1.38,3.52c-14.24,32.45-45,46.69-80.67,47.61-40.26-.77-74.7-18.37-95.98-49.44-9.8-15.92-14.24-29.7-13.16-48.37Z"/>
          </g>
        </g>
      </g>
    </mask>
    <mask id="mask-1" x="795.83" y="-20.91" width="145.97" height="104.34" maskUnits="userSpaceOnUse">
      <g id="id_12" data-name="id 12">
        <g id="R_Eye_2" data-name="R Eye 2">
          <g id="g_15" data-name="g 15">
            <path id="path_16" data-name="path 16" class="cls-6" d="M844.48-5.08c5.05,11.33-1.22,22.96-14.24,25.87-12.86,2.91-27.55-3.83-32.61-15.15-5.2-11.33,1.22-22.96,14.08-25.87,13.01-2.91,27.55,3.83,32.76,15.15Z"/>
          </g>
        </g>
      </g>
    </mask>
    <mask id="mask-2" x="762.07" y="-13.16" width="143.48" height="105.14" maskUnits="userSpaceOnUse">
      <g id="id_17" data-name="id 17">
        <g id="L_Eye_2" data-name="L Eye 2">
          <g id="g_20" data-name="g 20">
            <path id="path_21" data-name="path 21" class="cls-6" d="M810.65,2.73c-5.05-11.33-19.75-18.22-32.61-15.15-13.01,2.91-19.29,14.54-14.24,25.87,5.05,11.33,19.75,18.06,32.76,15.15,12.86-3.06,19.13-14.54,14.08-25.87Z"/>
          </g>
        </g>
      </g>
    </mask>
  </defs>
  <g>
    <g id="Depth">
      <g id="g_1" data-name="g 1">
        <g id="Path_1" data-name="Path 1">
          <path class="cls-2" d="M798.4,87.87c1.38-10.87,4.75-20.82,7.65-31.53l-.77,3.83-.77,3.83c-1.22,10.41-.77,17.76,1.68,28.01,5.51,18.52,14.24,31.23,28.93,44.7,21.12,17.76,44.24,27.09,73.32,28.78,37.2.77,70.41-13.47,85.42-47.45l1.38-3.52-5.66,20.05-1.38,3.52c-14.24,32.45-45,46.69-80.67,47.61-40.26-.77-74.7-18.37-95.98-49.44-9.8-15.92-14.24-29.7-13.16-48.37Z"/>
          <path d="M971.83,148.59c.81-.61,1.61-1.24,2.39-1.89-.78.65-1.58,1.27-2.39,1.89ZM971.32,148.98c-7.27,5.42-15.53,9.66-24.67,12.67,4.76-1.54,9.27-3.42,13.49-5.61,4.19-2.18,8.07-4.67,11.69-7.45-.17.13-.34.26-.51.39ZM996.52,114.85l-1.36-.45-1.24-.42-1.36,3.49c-.19.44-.39.87-.59,1.3-.02.07-.05.13-.08.18-4.57,9.82-10.82,18.13-18.66,24.88-.2.17-.41.34-.61.51-.43.37-.87.73-1.32,1.07-3.8,3.06-7.96,5.76-12.46,8.1-3.43,1.79-7.07,3.36-10.89,4.69-.67.25-1.35.48-2.04.7-.15.05-.3.1-.45.14-.93.31-1.89.58-2.84.86-5.89,1.69-12.14,2.88-18.67,3.53-4.92.51-10,.71-15.19.61h-.22c-.11-.01-.23-.01-.34-.02-8.47-.51-16.47-1.69-24.1-3.56-11.19-2.76-21.57-7.03-31.4-12.94-.37-.21-.74-.43-1.11-.67-.44-.26-.88-.54-1.32-.82-3.91-2.47-7.74-5.21-11.5-8.22-.11-.08-.22-.17-.32-.26-.79-.62-1.57-1.27-2.35-1.92-.47-.43-.93-.86-1.39-1.29-.07-.07-.13-.13-.2-.19-13.36-12.6-21.13-24.5-26.17-40.14-.25-.78-.5-1.58-.74-2.38-.19-.82-.37-1.61-.54-2.4-.02-.08-.04-.17-.05-.25-.07-.3-.14-.61-.2-.91-.41-2-.72-3.89-.96-5.75-.02-.13-.03-.27-.05-.4-.7-5.67-.63-10.98.13-17.51.03-.18.06-.36.09-.53l1.24-6.23.21-1.04-1.33-.31-1.4-.33h-.05c-.67,2.46-1.38,4.92-2.06,7.31-2.34,8.2-4.56,15.94-5.63,24.41v.1c-1.03,17.84,2.84,32.1,13.36,49.2l.04.06c10.7,15.63,24.64,27.93,41.4,36.55,16.68,8.58,35.44,13.12,55.73,13.51h.06c3.93-.1,7.76-.36,11.48-.78,14.14-1.57,26.74-5.38,37.55-11.37,14.89-8.27,25.97-20.48,32.91-36.31l1.4-3.57,5.71-20.18-.11-.04ZM989.51,129.54l-1.28,4.56-1.34,3.43c-6.69,15.22-17.34,26.98-31.68,34.93-10.24,5.68-22.16,9.34-35.53,10.93-3.93.47-7.98.75-12.15.86-19.83-.38-38.16-4.82-54.45-13.19-16.32-8.39-29.89-20.36-40.32-35.6-10.3-16.74-13.93-30.06-12.94-47.46.57-4.5,1.49-8.82,2.57-13.13.01-.06.03-.11.04-.17.04,4.62.55,9.04,1.58,14.06.05.26.11.52.17.78.19.91.4,1.84.63,2.79l.02.08c.23.77.47,1.54.71,2.29,1.69,5.29,3.68,10.16,6.06,14.77.26.49.52.98.78,1.46.33.6.67,1.2,1.01,1.79.37.65.75,1.29,1.14,1.92.33.55.67,1.1,1.02,1.64.63.99,1.29,1.98,1.98,2.95,4.37,6.21,9.71,12.14,16.35,18.25.09.09.19.17.28.26l.05.04c.1.09.21.17.31.26,6.23,5.21,12.62,9.68,19.26,13.44,7.51,4.26,15.33,7.61,23.59,10.09.28.09.56.17.85.26,9.42,2.78,19.41,4.44,30.15,5.06h.05c5.07.11,10.04-.07,14.87-.53,7.61-.72,14.87-2.12,21.67-4.19.23-.06.47-.13.7-.21.33-.1.66-.21.99-.32,4.76-1.54,9.27-3.42,13.49-5.61,4.19-2.18,8.07-4.67,11.69-7.45.81-.61,1.61-1.24,2.39-1.89.25-.18.5-.4.75-.61,5.72-4.89,10.63-10.6,14.69-17.07l-.15.52Z"/>
        </g>
      </g>
    </g>
    <g class="cls-1">
      <g id="Shape_Layer_1" data-name="Shape Layer 1">
        <g id="Rectangle_1" data-name="Rectangle 1">
          <g id="Rectangle_Path_1" data-name="Rectangle Path 1">
            <path d="M996.52,114.85l.11.04-5.71,20.18-1.4,3.57c-6.94,15.82-18.01,28.04-32.91,36.31-10.81,5.99-23.41,9.8-37.55,11.37l.32-1.48.31-1.46,3.58-16.87.03-.14.29-1.34.02-.11.29-1.36.03-.13,6.65-31.32.71-3.33,10.87-51.14,17.79,3.78,2.96.63,34.09,7.24,1.46.31,1.44.31c.44,8.53-.69,16.93-3.39,24.94Z"/>
          </g>
        </g>
      </g>
    </g>
    <g id="Head">
      <g id="g_5" data-name="g 5">
        <g id="path_6" data-name="path 6">
          <path class="cls-2" d="M810.64,104.24c-19.75-43.78,4.75-88.63,54.8-100.11,50.06-11.48,106.54,14.85,126.29,58.63,19.75,43.93-4.75,88.78-54.8,100.11-50.06,11.48-106.54-14.85-126.29-58.63Z"/>
          <path d="M908.18,164.02c.11.01.23.01.34.02h.22c-.18,0-.37-.01-.56-.02ZM884.08,160.46c-11.07-2.83-21.71-7.22-31.4-12.94,9.83,5.91,20.2,10.18,31.4,12.94ZM836.08,135.63c.78.65,1.56,1.3,2.35,1.92-1.28-1.04-2.52-2.12-3.74-3.21.46.43.92.86,1.39,1.29ZM807.58,91.63c.24.8.49,1.6.74,2.38-.49-1.59-.91-3.19-1.28-4.78.17.79.35,1.58.54,2.4ZM999.91,89.92c-.46-9.21-2.75-18.58-6.87-27.75-9.7-21.5-28.34-39.52-52.48-50.74-24.15-11.22-50.93-14.3-75.43-8.69-12.95,2.97-24.44,8.16-34.14,15.42-9.4,7.03-16.67,15.65-21.63,25.63-1.96,3.94-3.51,8.01-4.64,12.18-1.14,4.17-1.86,8.42-2.16,12.74-.16,2.03-.21,4.09-.17,6.15.07,4.6.61,9.25,1.62,13.89.05.26.11.52.17.78.39,1.72.84,3.44,1.36,5.16,1.02,3.39,2.28,6.78,3.8,10.13.71,1.57,1.46,3.11,2.26,4.64.26.49.52.98.78,1.46.33.6.67,1.2,1.01,1.79.37.65.75,1.29,1.14,1.92.33.55.67,1.1,1.02,1.64.63.99,1.29,1.98,1.98,2.95,4.57,6.61,10.07,12.74,16.35,18.25.21.2.43.38.64.56,5.8,5.03,12.25,9.54,19.26,13.44,2.6,1.45,5.27,2.81,8.02,4.09,5.08,2.36,10.28,4.37,15.56,6,.28.09.56.17.85.26,11.33,3.42,22.98,5.16,34.49,5.16,3.53,0,7.05-.17,10.55-.49,4.71-.45,9.38-1.2,13.97-2.25,2.63-.6,5.21-1.28,7.72-2.08.23-.06.47-.13.7-.21.33-.1.66-.21.99-.32,9.13-3.01,17.39-7.25,24.67-12.67.99-.74,1.96-1.49,2.9-2.28.25-.18.5-.4.75-.61,5.79-4.86,10.66-10.4,14.54-16.55,1.06-1.66,2.04-3.37,2.94-5.11.17-.32.33-.63.49-.95,1.4-2.81,2.59-5.69,3.57-8.62,2.7-8,3.83-16.4,3.39-24.94ZM991.97,118.77c-.02.07-.05.13-.08.18-.47,1.09-.97,2.17-1.5,3.24-4.11,8.22-9.87,15.48-17.16,21.64-.2.18-.41.35-.61.51-.44.36-.88.72-1.32,1.07-.58.46-1.18.9-1.77,1.35-6.42,4.77-13.64,8.59-21.58,11.44-.68.24-1.36.48-2.04.7-.15.05-.3.1-.45.14-2.86.94-5.8,1.75-8.83,2.44-4.2.96-8.44,1.65-12.71,2.08-5.04.52-10.11.67-15.16.48-.18,0-.37-.01-.56-.02-8.13-.34-16.22-1.55-24.1-3.56-11.07-2.83-21.71-7.22-31.4-12.94-.37-.22-.74-.44-1.11-.67-.44-.26-.88-.54-1.32-.82-4.03-2.5-7.87-5.25-11.5-8.22-.11-.08-.22-.17-.32-.26-1.28-1.04-2.52-2.12-3.74-3.21-.07-.07-.13-.13-.2-.19-9.56-8.68-17.35-18.97-22.55-30.49-1.44-3.2-2.65-6.42-3.62-9.65-.49-1.59-.91-3.19-1.28-4.78-.02-.08-.04-.17-.05-.25-.07-.3-.14-.61-.2-.91-2.21-10.31-2.06-20.62.45-30.42,1.1-4.31,2.66-8.52,4.68-12.59,4.75-9.57,11.74-17.84,20.77-24.61,9.38-7.02,20.5-12.04,33.07-14.92,49.26-11.3,105.18,14.64,124.66,57.82,3.85,8.57,6.05,17.32,6.58,25.95.63,10.17-1.05,20.16-5.04,29.48Z"/>
        </g>
      </g>
    </g>
    <g id="Mouth_2" data-name="Mouth 2">
      <g id="Ellipse_1" data-name="Ellipse 1">
        <g id="path_7" data-name="path 7">
          <path d="M906.89,136.13c-11.33,0-22.98-2.53-34.02-7.5-12.53-5.64-23.36-14.06-31.33-24.34l2.26-1.75c7.68,9.91,18.14,18.04,30.24,23.49,16.26,7.32,33.88,9.17,49.63,5.22,15.62-3.93,27.37-13.08,33.09-25.77,3.78-8.39,4.66-17.96,2.55-27.68l2.79-.61c2.24,10.32,1.3,20.51-2.73,29.46-6.08,13.5-18.51,23.22-35,27.37-5.64,1.42-11.52,2.12-17.48,2.12Z"/>
        </g>
      </g>
    </g>
    <g id="Null_1" data-name="Null 1">
      <g id="L_Eye" data-name="L Eye">
        <g id="g_8" data-name="g 8">
          <g id="path_9" data-name="path 9">
            <path class="cls-6" d="M906.09,68.91c-5.05-11.33-19.75-18.22-32.61-15.15-13.01,2.91-19.29,14.54-14.24,25.87,5.05,11.33,19.75,18.06,32.76,15.15,12.86-3.06,19.13-14.54,14.08-25.87Z"/>
          </g>
        </g>
      </g>
      <g id="R_Eye" data-name="R Eye">
        <g id="g_10" data-name="g 10">
          <g id="path_11" data-name="path 11">
            <path class="cls-6" d="M939.92,61.11c5.05,11.33-1.22,22.96-14.24,25.87-12.86,2.91-27.55-3.83-32.61-15.15-5.2-11.33,1.22-22.96,14.08-25.87,13.01-2.91,27.55,3.83,32.76,15.15Z"/>
          </g>
        </g>
      </g>
      <g class="cls-5">
        <g id="R_Pupil" data-name="R Pupil">
          <g id="g_13" data-name="g 13">
            <g id="path_14" data-name="path 14">
              <path d="M938.11,61.27c-4.29-9.8-13.62-16.23-20.67-14.7-7.04,1.68-9.18,10.87-4.9,20.51,4.44,9.8,13.62,16.23,20.67,14.7,7.04-1.68,9.34-10.87,4.9-20.51Z"/>
              <path d="M941.64,68.33c-.3-2.48-1.05-5.09-2.23-7.65-.58-1.33-1.25-2.6-2-3.8-.01-.01-.01-.02-.03-.03-5.02-8.08-13.46-13.15-20.26-11.66-.28.06-.55.14-.81.23-.78.25-1.5.58-2.16,1-1.59.98-2.86,2.41-3.77,4.24-2.21,4.46-1.88,10.82.87,17.01,4.22,9.32,12.53,15.75,19.83,15.75h.04c.83,0,1.63-.08,2.43-.26.42-.1.83-.22,1.23-.38,2.45-.91,4.38-2.7,5.61-5.23,1.26-2.6,1.67-5.8,1.25-9.22ZM913.86,66.5c-.19-.44-.38-.88-.54-1.32-.03-.06-.06-.13-.08-.2-1.83-4.89-1.96-9.69-.3-13.05,1.03-2.08,2.7-3.45,4.81-3.96.6-.13,1.22-.19,1.85-.19,6.16,0,13.66,5.97,17.2,14.06v.02c2.46,5.31,2.83,10.71,1.02,14.44-1.04,2.15-2.75,3.56-4.91,4.08-6.17,1.34-14.32-4.38-18.56-12.87-.17-.33-.34-.67-.49-1.01Z"/>
            </g>
          </g>
        </g>
      </g>
      <g class="cls-4">
        <g id="L_Pupil" data-name="L Pupil">
          <g id="g_18" data-name="g 18">
            <g id="path_19" data-name="path 19">
              <path d="M901.81,69.83c4.44,9.64,2.3,18.83-4.75,20.51-7.19,1.53-16.38-4.9-20.82-14.7-4.29-9.64-2.14-18.83,4.9-20.51,7.04-1.53,16.38,5.05,20.67,14.7Z"/>
              <path d="M903.11,69.24c-1.73-3.89-4.25-7.31-7.14-9.96-.57-.53-1.16-1.03-1.77-1.49-.45-.35-.91-.68-1.38-.99-3.94-2.65-8.24-3.87-12.01-3.05-.68.16-1.32.38-1.93.66-2.07.96-3.71,2.6-4.81,4.82-2.2,4.46-1.88,10.81.88,17,4.21,9.31,12.58,15.75,19.97,15.75.47,0,.93-.02,1.39-.08.37-.04.73-.09,1.08-.17,1.87-.45,3.48-1.35,4.77-2.67.79-.8,1.46-1.76,1.99-2.86.34-.69.61-1.43.82-2.2.08-.26.14-.52.19-.79.9-4.09.19-9.09-2.05-13.97ZM886,85.73c-3.38-2.51-6.45-6.25-8.45-10.66-2.41-5.41-2.75-10.86-.92-14.57.6-1.21,1.41-2.17,2.4-2.87.01,0,.01-.01.01-.01.72-.5,1.52-.87,2.41-1.08.59-.12,1.19-.19,1.82-.19,2.73,0,5.74,1.19,8.55,3.23,3.5,2.53,6.69,6.36,8.68,10.84v.02c1.98,4.28,2.63,8.6,1.91,12.05-.19.88-.46,1.71-.83,2.47-1.02,2.1-2.7,3.48-4.82,3.99-3.33.71-7.21-.58-10.76-3.22Z"/>
            </g>
          </g>
        </g>
      </g>
    </g>
    <g id="Stroke_Eyes" data-name="Stroke Eyes">
      <g id="Shape_1" data-name="Shape 1">
        <g id="path_22" data-name="path 22">
          <path d="M942.82,65.94c-1.65-13.3-11.12-21.05-27.37-22.41h-.05c-13.6-.71-19.92,6.02-22.68,10.76-6.02-2.25-16.18-5.44-26.78.79-6.19,3.63-8.52,8.84-9.38,12.57-1.18,5.1-.32,10.66,2.24,14.51,6.36,9.59,15.47,14.53,27.08,14.66.14.01.29.01.43.01,12.63,0,17.68-6.62,20.18-10.35,2.45.96,8.49,2.89,16.37,2.38,6.06-.39,11.92-3.34,15.68-7.88,3.49-4.22,4.96-9.42,4.26-15.05ZM906.6,83.35l-.05-.02-.64-.32-.46-.22-.28.42-.43.66-.27.4c-1.14,1.72-2.77,4.18-5.64,6.18-.75.53-1.58,1.02-2.51,1.45-2.6,1.24-5.97,2.06-10.39,2.01-10.72-.13-18.78-4.5-24.67-13.35-2.13-3.21-2.83-7.9-1.83-12.24.73-3.17,2.72-7.6,8.02-10.71,3.92-2.31,7.82-3.15,11.43-3.2h.34c1.88,0,3.69.21,5.38.54.34.07.66.14.99.21.16.03.32.07.48.11.2.05.4.1.59.15,2.28.59,4.29,1.33,5.91,1.94.11.05.22.09.33.13l1.21.46v-.02s.09-.14.09-.14l.45-.87.15-.29c2.02-3.96,7.19-10.45,19.34-10.21.36.01.72.02,1.09.04.59.05,1.16.11,1.73.18.06,0,.12.01.18.02,5.18.61,9.5,1.95,12.94,3.98,0,.01.01.01.02.01,5.64,3.34,8.93,8.57,9.81,15.65.03.24.06.47.07.71.4,4.54-.87,8.71-3.69,12.11-.7.85-1.48,1.63-2.34,2.33-.06.07-.13.12-.19.16-.83.68-1.72,1.28-2.65,1.81-2.56,1.45-5.46,2.34-8.42,2.53-9.41.6-15.83-2.47-16.1-2.6Z"/>
        </g>
      </g>
    </g>
    <g>
      <path d="M903.93,70.03c4.52,9.49,2.26,18.53-4.52,20.33-7.23,1.36-16.72-4.97-20.79-14.91-4.52-9.49-2.26-18.53,4.52-20.33,7.23-1.36,16.72,4.97,20.79,14.91Z"/>
      <path d="M939.18,61.02c-4.07-9.94-13.56-16.27-20.79-14.91-6.78,1.81-9.04,10.85-4.52,20.33,4.07,9.94,13.56,16.27,20.79,14.91,6.78-1.81,9.04-10.85,4.52-20.33Z"/>
    </g>
  </g>
  <g>
    <path d="M19.69,177.69C6.56,168.8,0,155.81,0,138.72c0-1.41.17-3.87.53-7.4h54.7c-.53,5.99.7,10.66,3.7,14,2.99,3.35,7.57,5.02,13.74,5.02,5.11,0,9.2-1.14,12.29-3.43,3.08-2.29,4.62-5.55,4.62-9.78,0-4.93-2.25-8.98-6.74-12.15-4.49-3.17-11.76-6.87-21.8-11.1-10.04-4.23-18.32-8.23-24.84-12.02-6.52-3.79-12.15-8.98-16.91-15.59-4.76-6.61-7.13-14.84-7.13-24.71,0-12.86,3.17-23.91,9.51-33.16,6.34-9.25,15.19-16.29,26.56-21.14C59.58,2.42,72.57,0,87.2,0c13.21,0,24.92,2.07,35.14,6.21,10.21,4.14,18.19,10.09,23.91,17.84,5.72,7.75,8.59,16.91,8.59,27.48,0,2.82-.09,4.93-.26,6.34h-55.75c.17-.88.26-2.11.26-3.7,0-4.23-1.32-7.53-3.96-9.91s-6.25-3.57-10.83-3.57-8.59,1.19-11.49,3.57-4.36,5.68-4.36,9.91c0,4.58,2.25,8.5,6.74,11.76,4.49,3.26,11.49,7.09,21.01,11.49,10.21,4.76,18.63,9.21,25.23,13.34,6.61,4.14,12.29,9.64,17.04,16.51,4.76,6.87,7.13,15.32,7.13,25.37,0,11.1-3,21.1-8.98,29.99-5.99,8.9-14.53,15.85-25.63,20.87-11.1,5.02-24.22,7.53-39.37,7.53-21.49,0-38.8-4.45-51.92-13.34Z"/>
    <path d="M278.23,158.8h-66.06l-15.33,30.39h-54.43L243.09,2.91h59.72l34.88,186.28h-54.69l-4.76-30.39ZM272.15,119.43l-9.25-60.51-30.65,60.51h39.9Z"/>
    <path d="M503.75,95.78c-6.78,9.25-15.9,16.65-27.35,22.2-11.45,5.55-24.75,8.32-39.9,8.32h-25.63l-11.1,62.89h-52.05L380.75,2.91h77.42c19.55,0,34.44,4.45,44.65,13.34,10.21,8.9,15.33,20.83,15.33,35.8,0,3.7-.44,8.02-1.32,12.95-1.94,11.28-6.3,21.53-13.08,30.78ZM464.24,65c.35-2.47.53-4.23.53-5.28,0-4.76-1.54-8.5-4.62-11.23-3.08-2.73-7.79-4.1-14.14-4.1h-20.61l-7.13,40.96h20.61c14.62,0,23.07-6.78,25.37-20.35Z"/>
    <path d="M568.34,149.82h57.87l-7.13,39.37h-109.92L542.19,2.91h51.79l-25.63,146.91Z"/>
    <path d="M709.97,43.86l-5.29,30.91h59.45l-7.13,39.37h-59.45l-6.08,33.82h67.38l-7.13,41.22h-119.43L665.32,2.91h119.17l-7.13,40.96h-67.38Z"/>
  </g>
</svg>